<svg xmlns="http://www.w3.org/2000/svg" width="220" height="39" viewBox="0 0 220 39" fill="none">
  <g clip-path="url(#clip0_27_17)">
    <path d="M126.03 6.65564H136.176V25.2699H126.03V6.65564ZM123.205 3.83327C122.834 3.83333 122.468 3.90642 122.125 4.04834C121.783 4.19027 121.473 4.39825 121.211 4.66038C120.949 4.92252 120.742 5.23367 120.601 5.57603C120.459 5.9184 120.387 6.28526 120.387 6.65564V25.2699C120.387 26.0171 120.684 26.7336 121.213 27.262C121.741 27.7903 122.457 28.0871 123.205 28.0871H141.823V3.8343L123.205 3.83327ZM148.588 3.83327H145.774V34.8536H148.588C148.958 34.8545 149.325 34.7823 149.668 34.6412C150.01 34.5 150.322 34.2926 150.584 34.0308C150.846 33.7691 151.054 33.4582 151.196 33.1159C151.337 32.7737 151.41 32.4068 151.41 32.0364V6.65564C151.41 6.28488 151.337 5.91769 151.196 5.57508C151.054 5.23247 150.846 4.92117 150.584 4.65901C150.322 4.39685 150.011 4.18897 149.668 4.04728C149.325 3.90559 148.959 3.83286 148.588 3.83327ZM55.8592 6.65512H63.7562V3.83327H53.042C52.671 3.83252 52.3035 3.90499 51.9606 4.04653C51.6176 4.18806 51.306 4.39588 51.0435 4.65807C50.7811 4.92026 50.5729 5.23167 50.431 5.57445C50.2891 5.91723 50.2162 6.28464 50.2165 6.65564V25.2699C50.2166 25.6406 50.2898 26.0076 50.4319 26.35C50.574 26.6923 50.7822 27.0033 51.0447 27.2651C51.3071 27.5269 51.6186 27.7343 51.9614 27.8755C52.3041 28.0168 52.6713 28.089 53.042 28.0881H63.9143V25.2699H55.8592V6.65512ZM78.4248 3.83327H75.5993V12.304H72.7744V3.83327H67.1384V34.8536H72.7739V15.1176H75.5988V34.8536H78.4243C79.9776 34.8536 81.2415 33.5974 81.2415 32.0364V6.65564C81.2419 5.90786 80.9454 5.19052 80.4171 4.66129C79.8888 4.13205 79.172 3.83422 78.4243 3.83327M182.089 3.83327H179.275V34.8536H182.089C183.655 34.8536 184.915 33.5974 184.915 32.0364V6.65564C184.915 6.28464 184.842 5.91723 184.7 5.57445C184.558 5.23167 184.35 4.92026 184.088 4.65807C183.825 4.39588 183.514 4.18806 183.171 4.04653C182.828 3.90499 182.46 3.83252 182.089 3.83327ZM161.112 6.65512H175.325V3.83327H158.295C157.546 3.83299 156.827 4.13015 156.297 4.6594C155.767 5.18865 155.469 5.90668 155.469 6.65564V25.2699C155.469 26.8258 156.737 28.0881 158.295 28.0881H175.382V25.2699H161.112V6.65512ZM198.282 25.2699C193.327 25.2699 192.368 20.8494 192.368 15.3926C192.368 9.94668 193.327 5.52463 198.282 5.52463C203.24 5.52463 204.207 9.94668 204.207 15.3926C204.207 20.8494 203.24 25.2699 198.282 25.2699ZM217.182 3.83378H214.365V12.304H209.598C208.677 6.78903 205.132 2.70483 198.282 2.70483C190.211 2.70483 186.721 8.38047 186.721 15.3926C186.721 22.4048 190.212 28.0876 198.282 28.0876C206.355 28.0876 209.843 22.4048 209.843 15.3921V15.1181H214.365V34.8541H217.182C218.74 34.8541 220 33.5974 220 32.0358V6.65512C220 6.28483 219.928 5.91808 219.786 5.57583C219.645 5.23359 219.437 4.92256 219.176 4.66053C218.914 4.39851 218.603 4.19062 218.261 4.04876C217.919 3.9069 217.553 3.83385 217.182 3.83378ZM92.1375 23.972H86.4979V32.0364C86.4979 32.4068 86.5709 32.7735 86.7128 33.1157C86.8547 33.4578 87.0627 33.7686 87.3248 34.0303C87.587 34.2919 87.8982 34.4993 88.2406 34.6406C88.583 34.7819 88.9499 34.8543 89.3203 34.8536H116.324V32.0364H92.1375V23.972Z" fill="#888888"/>
    <path d="M96.8624 5.52466C100.135 5.52466 102.792 8.36866 102.792 11.8729C102.792 15.37 100.135 18.216 96.8624 18.216C93.5929 18.216 90.9411 15.37 90.9411 11.8729C90.9411 8.36866 93.5935 5.52466 96.8624 5.52466ZM95.3049 27.7534H100.952V21.3212H109.164V18.4921H104.695C107.163 16.8445 108.71 14.4275 108.71 11.7318C108.71 6.7427 103.405 2.70435 96.8624 2.70435C90.3163 2.70435 85.027 6.7427 85.027 11.7318C85.027 14.4275 86.5731 16.8445 89.0303 18.4921H84.3497V21.3222H95.3049V27.7534Z" fill="#888888"/>
    <path d="M113.506 3.83328H110.689V23.6166H105.049V26.4385H110.689V29.9562H116.323V6.65462C116.324 6.28428 116.251 5.91748 116.11 5.57517C115.969 5.23287 115.761 4.92178 115.5 4.6597C115.238 4.39762 114.927 4.18968 114.585 4.04779C114.243 3.9059 113.876 3.83335 113.506 3.83328Z" fill="#888888"/>
    <path d="M38.6325 34.7677C38.6325 36.9009 36.902 38.6273 34.7656 38.6273H3.86737C1.73411 38.6273 0 36.9009 0 34.7677V3.86737C0.000682153 2.84189 0.408355 1.8586 1.13348 1.13348C1.8586 0.408355 2.84189 0.000682153 3.86737 0H34.7656C35.7913 0.000136562 36.7749 0.407634 37.5001 1.13288C38.2253 1.85812 38.6328 2.84172 38.633 3.86737L38.6325 34.7677Z" fill="#888888"/>
    <path d="M34.7692 19.3148C34.7692 27.8452 27.8508 34.7672 19.3183 34.7672C10.7858 34.7672 3.86737 27.8452 3.86737 19.3148C3.86737 10.7807 10.7858 3.8623 19.3183 3.8623C27.8508 3.8623 34.7692 10.7802 34.7692 19.3148Z" fill="white"/>
    <path d="M11.907 14.7623C11.907 14.2906 11.8091 13.895 11.6284 13.5793C11.4404 13.2672 11.1617 13.1127 10.793 13.1127H9.68721V16.5855H10.7106C11.0979 16.5855 11.3992 16.4048 11.598 16.036C11.8014 15.6714 11.907 15.2439 11.907 14.7623ZM14.0135 13.6138C14.1412 14.0459 14.2056 14.4317 14.2056 14.7623C14.2056 15.1368 14.1041 15.6302 13.9043 16.2353C13.7086 16.8333 13.3893 17.3344 12.9566 17.733C12.5199 18.1245 11.9745 18.3233 11.3085 18.3233H7.49009V11.3518H11.5418C12.1588 11.3518 12.6703 11.563 13.0921 11.9771C13.5057 12.3947 13.8142 12.9402 14.0135 13.6138ZM18.5581 15.9948L17.8963 13.6318H17.8062L17.1057 15.9948H18.5581ZM21.4778 18.3233H19.2014L18.9573 17.4467H16.704L16.4516 18.3233H14.2576L16.7225 11.3544H18.9835L21.4778 18.3233ZM27.8014 18.3233H22.0274V11.3544H27.6592V13.021H24.2317V13.9481H27.1478V15.5617H24.2317V16.6602H27.8024L27.8014 18.3233ZM16.4176 19.9523L14.7469 26.9181H12.4936L11.753 23.0528H11.6742L10.9212 26.9186H8.66024L6.98639 19.9528H9.16497L9.94679 24.1349L10.0189 24.0947L10.7935 19.9528H12.6934L13.5062 24.1591H13.5628L14.2962 19.9533L16.4176 19.9523ZM21.6735 23.4288C21.6735 22.9168 21.5566 22.4744 21.312 22.0969C21.0715 21.7204 20.7367 21.5288 20.3035 21.5288C19.8637 21.5288 19.5171 21.7297 19.2838 22.1252C19.0469 22.5218 18.9305 22.9843 18.9305 23.4962C18.9305 24.0118 19.0659 24.4485 19.3219 24.8317C19.5779 25.2082 19.9425 25.3962 20.3829 25.3962C20.8078 25.3962 21.1353 25.1984 21.3501 24.7941C21.5679 24.3934 21.6735 23.9366 21.6735 23.4288ZM23.9191 23.3288C23.9191 24.4573 23.5997 25.3735 22.956 26.0791C22.3055 26.7826 21.4778 27.1303 20.4735 27.1303C19.3971 27.1303 18.5061 26.8182 17.7799 26.194C17.0573 25.5574 16.688 24.6741 16.688 23.5374C16.688 22.3879 17.0346 21.4722 17.715 20.782C18.3892 20.0991 19.258 19.755 20.3035 19.755C21.3197 19.755 22.1844 20.0805 22.8808 20.731C23.5766 21.382 23.9191 22.2478 23.9191 23.3288ZM31.3721 26.9181H29.1863L26.8347 23.2784V26.9181H24.7019V19.9523H26.8347L29.2311 23.6152V19.9523H31.3721V26.9181Z" fill="#888888"/>
  </g>
  <defs>
    <clipPath id="clip0_27_17">
      <rect width="220" height="38.6273" fill="white"/>
    </clipPath>
  </defs>
</svg>
