<svg xmlns="http://www.w3.org/2000/svg" width="427.15891pt" height="75pt" viewBox="0 0 427.1589 75"><path fill="#231916" d="M244.704 12.923h19.7v36.142h-19.7zm-5.486-5.48a5.471 5.471 0 0 0-5.47 5.48v36.142a5.47 5.47 0 0 0 5.47 5.47h36.15V7.445ZM288.503 7.443h-5.464v60.23h5.464a5.465 5.465 0 0 0 5.479-5.47v-49.28a5.474 5.474 0 0 0-5.48-5.48M108.458 12.922h15.333V7.443h-20.803a5.475 5.475 0 0 0-5.486 5.48v36.142a5.473 5.473 0 0 0 5.486 5.472h21.11v-5.472h-15.64zM152.272 7.443h-5.486V23.89h-5.485V7.443h-10.943v60.23H141.3v-38.32h5.485v38.32h5.486c3.016 0 5.47-2.439 5.47-5.47v-49.28a5.477 5.477 0 0 0-5.47-5.48M353.55 7.443h-5.464v60.23h5.464c3.04 0 5.486-2.439 5.486-5.47v-49.28a5.475 5.475 0 0 0-5.486-5.48M312.82 12.922h27.597V7.443H307.35a5.485 5.485 0 0 0-5.487 5.48v36.142c0 3.021 2.463 5.472 5.487 5.472h33.177v-5.472H312.82ZM384.99 49.065c-9.62 0-11.483-8.583-11.483-19.178 0-10.574 1.862-19.16 11.483-19.16 9.627 0 11.504 8.586 11.504 19.16 0 10.595-1.877 19.178-11.504 19.178m36.698-41.621h-5.47V23.89h-9.256c-1.789-10.708-8.671-18.638-21.972-18.638-15.67 0-22.447 11.02-22.447 24.635 0 13.615 6.778 24.649 22.447 24.649 15.675 0 22.447-11.034 22.447-24.65v-.532h8.78v38.32h5.471c3.024 0 5.47-2.44 5.47-5.472v-49.28a5.471 5.471 0 0 0-5.47-5.478M178.897 46.545h-10.95v15.658a5.47 5.47 0 0 0 5.48 5.47h52.432v-5.47h-46.962z" style="stroke-width:1.35614"/><path fill="#231916" d="M188.071 10.727c6.355 0 11.513 5.522 11.513 12.326 0 6.79-5.158 12.316-11.513 12.316-6.348 0-11.497-5.526-11.497-12.316 0-6.804 5.15-12.326 11.497-12.326m-3.024 43.16h10.965V41.398h15.945v-5.493h-8.678c4.793-3.199 7.795-7.892 7.795-13.126 0-9.687-10.3-17.528-23.003-17.528-12.71 0-22.98 7.841-22.98 17.528 0 5.234 3.002 9.927 7.773 13.126h-9.088V41.4h21.271z" style="stroke-width:1.35614"/><path fill="#231916" d="M220.387 7.443h-5.47v38.412h-10.95v5.479h10.95v6.83h10.94V12.921a5.471 5.471 0 0 0-5.47-5.479" style="stroke-width:1.35614"/><path fill="#e60013" d="M75.01 67.506c0 4.142-3.36 7.494-7.508 7.494H7.509C3.367 75 0 71.648 0 67.506V7.509A7.514 7.514 0 0 1 7.509 0h59.993a7.51 7.51 0 0 1 7.509 7.509z" style="stroke-width:1.35614"/><path fill="#fff" d="M67.509 37.502c0 16.563-13.433 30.003-30 30.003s-30-13.44-30-30.003c0-16.57 13.433-30.003 30-30.003s30 13.432 30 30.003" style="stroke-width:1.35614"/><path fill="#231916" d="M23.119 28.663c0-.916-.19-1.684-.541-2.297-.365-.606-.906-.906-1.622-.906h-2.147v6.743h1.987c.752 0 1.337-.351 1.723-1.067.395-.708.6-1.538.6-2.473m4.09-2.23c.248.839.373 1.588.373 2.23 0 .727-.197 1.685-.585 2.86-.38 1.161-1 2.134-1.84 2.908-.848.76-1.907 1.146-3.2 1.146h-7.414V22.041h7.867c1.198 0 2.191.41 3.01 1.214.803.811 1.402 1.87 1.789 3.178M36.033 31.056l-1.285-4.588h-.175l-1.36 4.588zm5.669 4.521h-4.42l-.474-1.702h-4.375l-.49 1.702h-4.26l4.786-13.531h4.39zM53.98 35.577H42.769V22.046h10.935v3.236h-6.655v1.8h5.662v3.133h-5.662v2.133h6.933zM31.877 38.74l-3.244 13.525h-4.375L22.82 44.76h-.153l-1.462 7.506h-4.39l-3.25-13.525h4.23l1.518 8.12.14-.078 1.504-8.042h3.689l1.578 8.167h.11l1.424-8.166zM42.082 45.49c0-.994-.227-1.853-.702-2.586-.467-.731-1.117-1.103-1.958-1.103-.854 0-1.527.39-1.98 1.158-.46.77-.686 1.668-.686 2.662 0 1.001.263 1.849.76 2.593.497.731 1.205 1.096 2.06 1.096.825 0 1.461-.384 1.878-1.169.423-.778.628-1.665.628-2.651m4.36-.194c0 2.191-.62 3.97-1.87 5.34-1.263 1.366-2.87 2.041-4.82 2.041-2.09 0-3.82-.606-5.23-1.818-1.403-1.236-2.12-2.951-2.12-5.158 0-2.232.673-4.01 1.994-5.35 1.309-1.326 2.996-1.994 5.026-1.994 1.973 0 3.652.632 5.004 1.895 1.351 1.264 2.017 2.945 2.017 5.044M60.913 52.265h-4.244l-4.566-7.067v7.067h-4.141V38.74h4.141l4.653 7.112V38.74h4.157z" style="stroke-width:1.35614"/></svg>