<svg xmlns="http://www.w3.org/2000/svg" width="198" height="95" viewBox="0 0 198 95" fill="none">
  <g clip-path="url(#clip0_27_24)">
    <mask id="mask0_27_24" style="mask-type:luminance" maskUnits="userSpaceOnUse" x="-1" y="-1" width="200" height="97">
      <path d="M-0.0328674 95.0769H198.748V-0.257385H-0.0328674V95.0769Z" fill="white"/>
    </mask>
    <g mask="url(#mask0_27_24)">
      <path d="M79.5456 82.2014C79.0849 81.3752 78.4909 80.9521 77.5493 80.9521C76.5592 80.9521 75.4721 81.6735 75.4721 82.8381C75.4721 83.8738 76.4258 84.4178 77.2018 84.7321L78.0908 85.1069C79.8608 85.8403 81.1782 86.88 81.1782 89.0964C81.1782 91.5063 79.4325 93.2351 77.2018 93.2351C75.1933 93.2351 73.6253 91.6514 73.3586 89.5196L74.9266 89.169C74.9113 89.4938 74.9622 89.8182 75.0764 90.1228C75.1906 90.4273 75.3655 90.7056 75.5907 90.9407C75.8159 91.1758 76.0867 91.3629 76.3865 91.4906C76.6863 91.6183 77.0091 91.684 77.3351 91.6836C78.6727 91.6836 79.6264 90.4867 79.6264 89.0964C79.6264 87.6699 78.5555 87.0573 77.4846 86.5818L76.6279 86.195C75.2095 85.5461 73.9163 84.6838 73.9163 82.8381C73.9163 80.6902 75.7025 79.4046 77.5816 79.4046C78.9677 79.4046 80.1073 80.126 80.7822 81.4115L79.5456 82.2014Z" fill="#777777"/>
      <path d="M86.2296 92.949H84.6778V81.1979H81.7278V79.6827H89.1837V81.1979H86.2296V92.949Z" fill="#777777"/>
      <path d="M91.7417 79.6867V87.5127C91.7417 89.6808 92.3519 91.6836 94.7442 91.6836C97.1366 91.6836 97.7468 89.6808 97.7468 87.5127V79.6867H99.2986V88.0769C99.2986 90.9985 97.5973 93.2351 94.7442 93.2351C91.8912 93.2351 90.1898 90.9985 90.1898 88.0769V79.6867H91.7417Z" fill="#777777"/>
      <path d="M102.867 91.4378H103.413C106.577 91.4378 109.317 90.1724 109.317 86.3199C109.317 82.4472 106.577 81.1979 103.413 81.1979H102.867V91.4378ZM101.315 79.6867H103.89C107.704 79.6867 110.869 81.8306 110.869 86.2473C110.869 90.7688 107.765 92.949 103.837 92.949H101.315V79.6867Z" fill="#777777"/>
      <path d="M113.924 92.9531H112.372V79.6868H113.924V92.9531Z" fill="#777777"/>
      <path d="M126.856 86.32C126.856 83.3984 124.811 80.9522 121.889 80.9522C118.971 80.9522 116.926 83.3984 116.926 86.32C116.926 89.3464 119.202 91.6878 121.889 91.6878C124.58 91.6878 126.856 89.3464 126.856 86.32ZM128.407 86.32C128.407 90.2612 125.49 93.2312 121.889 93.2312C118.292 93.2312 115.375 90.2612 115.375 86.32C115.375 82.5198 118.329 79.4088 121.889 79.4088C125.453 79.4088 128.407 82.5198 128.407 86.32Z" fill="#777777"/>
      <path d="M146.014 86.2675V86.7954C146.014 90.4384 143.606 93.2351 140.126 93.2351C136.643 93.2351 133.838 90.0314 133.838 86.3561C133.838 82.5399 136.712 79.4046 140.288 79.4046C142.22 79.4046 144.135 80.3355 145.356 81.9757L144.269 83.0839C143.376 81.7823 141.872 80.9199 140.357 80.9199C137.568 80.9199 135.39 83.3297 135.39 86.2997C135.39 89.0844 137.536 91.7199 140.223 91.7199C142.155 91.7199 144.232 89.9467 144.297 87.7787H141.08V86.2675H146.014Z" fill="#777777"/>
      <path d="M154.893 85.0343V79.6867H156.445V92.949H154.893V86.5858H148.973V92.949H147.421V79.6867H148.973V85.0343H154.893Z" fill="#777777"/>
      <path d="M160.195 92.9531H158.643V79.6868H160.195V92.9531Z" fill="#777777"/>
      <path d="M163.937 91.4742H165.125C166.56 91.4742 168.059 91.0188 168.059 89.1328C168.059 87.271 166.281 86.8801 164.895 86.8801H163.937V91.4742ZM163.937 85.5664H164.333C165.804 85.5664 167.004 85.248 167.004 83.3459C167.004 81.4801 165.816 81.1658 164.365 81.1658H163.937V85.5664ZM162.385 79.6868H163.905C166.245 79.6868 168.455 80.3356 168.455 83.3298C168.455 84.293 167.962 85.4213 167.117 85.8445V85.8767C168.588 86.1628 169.611 87.6901 169.611 89.2376C169.611 91.8973 167.485 92.9531 165.291 92.9531H162.385V79.6868Z" fill="#777777"/>
      <path d="M172.9 91.4378H176.679V92.949H171.348V79.6867H172.9V91.4378Z" fill="#777777"/>
      <path d="M179.196 92.9531H177.645V79.6868H179.196V92.9531Z" fill="#777777"/>
      <path d="M56.2401 70.8454C60.063 69.3503 64.3426 65.2721 66.2298 59.7673H57.2261V57.7564H68.8606C68.6343 58.7881 67.9958 61.8346 65.5347 65.4172C66.5571 66.2876 69.0869 68.4799 71.3904 70.8978L69.7577 72.6548C69.0505 71.7682 67.7897 70.1966 64.3588 67.0049C63.1505 68.4799 60.7419 71.1436 57.4363 72.5782L56.2401 70.8454Z" fill="#777777"/>
      <path d="M77.3957 63.2571C78.1393 63.5916 79.5941 64.2565 81.4126 65.8765C82.9361 63.7931 83.3322 61.8144 83.4898 61.0609H77.4321C75.7146 63.5916 74.2436 64.6797 72.8777 65.5259L71.5805 63.9744C74.6073 62.294 76.1834 60.0655 77.3755 56.757L79.4729 57.1801C79.2012 57.8496 78.895 58.5046 78.5555 59.1427H85.9306C85.478 62.0361 83.9909 70.5109 73.7789 73.0457L72.6716 71.2161C73.8436 71.0106 76.7896 70.4948 80.0265 67.4482C78.2969 65.8242 76.7209 65.0303 76.0419 64.6797L77.3957 63.2571Z" fill="#777777"/>
      <path d="M87.2479 70.2367C93.7744 69.6645 96.7366 67.5568 98.9834 60.1943L100.859 61.0809C98.5025 68.0767 95.5767 71.5101 87.7329 72.4531L87.2479 70.2367ZM100.248 59.1788C99.8523 57.5145 99.5209 56.7609 99.3471 56.3539L100.753 56.0194C101.238 57.0873 101.566 58.3083 101.687 58.7516L100.248 59.1788ZM97.7226 59.5656C97.4801 58.3083 97.2579 57.5709 96.9063 56.5916L98.3288 56.2612C98.7612 57.3694 98.9188 57.8489 99.2097 59.1949L97.7226 59.5656ZM91.1274 65.6789C89.119 64.5103 87.1105 63.8131 86.2619 63.5351L87.054 61.6168C87.7005 61.8143 90.2788 62.6324 91.9235 63.5915L91.1274 65.6789ZM92.461 61.3952C90.7435 60.4683 89.119 59.8437 87.6278 59.3803L88.4603 57.4419C90.1395 57.9494 91.7726 58.5978 93.342 59.3803L92.461 61.3952Z" fill="#777777"/>
      <path d="M118.987 70.2367C125.514 69.6645 128.476 67.5568 130.723 60.1943L132.598 61.0809C130.242 68.0767 127.316 71.5101 119.472 72.4531L118.987 70.2367ZM131.988 59.1788C131.592 57.5145 131.26 56.7609 131.087 56.3539L132.493 56.0194C132.978 57.0873 133.305 58.3083 133.426 58.7516L131.988 59.1788ZM129.462 59.5656C129.219 58.3083 128.997 57.5709 128.646 56.5916L130.068 56.2612C130.501 57.3694 130.658 57.8489 130.949 59.1949L129.462 59.5656ZM122.867 65.6789C120.858 64.5103 118.85 63.8131 118.001 63.5351L118.793 61.6168C119.44 61.8143 122.018 62.6324 123.663 63.5915L122.867 65.6789ZM124.2 61.3952C122.487 60.4683 120.858 59.8437 119.367 59.3803L120.2 57.4419C121.879 57.9486 123.512 58.597 125.081 59.3803L124.2 61.3952Z" fill="#777777"/>
      <path d="M148.318 58.6793C148.197 57.9378 147.865 56.7006 147.574 55.9994L148.993 55.7254C149.305 56.5721 149.549 57.4428 149.72 58.3287L148.318 58.6793ZM146.499 55.8704C146.815 56.6482 146.984 57.2769 147.227 58.4415L146.706 58.514V58.5503H147.744C147.453 66.5818 143.663 71.1396 137.168 72.6226L136.077 70.6439C138.866 70.0717 144.596 68.8506 145.53 60.5451H134.57V58.5503H145.667C145.535 57.7222 145.315 56.9104 145.012 56.1284L146.499 55.8704Z" fill="#777777"/>
      <path d="M162.256 64.2202C162.256 67.1217 161.755 69.3905 159.742 71.0145C158.17 72.292 156.558 72.6184 153.062 73.0254L152.424 70.9943C156.857 70.7002 160.215 69.9627 160.215 65.1994V57.2042H162.256V64.2202ZM153.515 67.5649H151.51V57.5387H153.515V67.5649Z" fill="#777777"/>
      <path d="M173.405 56.3178C173.234 57.1178 172.996 57.9023 172.694 58.6632H180.158V60.4887H174.408V63.1121H179.726V64.9376H174.408V67.5812H179.726V69.3906H174.408V73.5293H172.541V60.4887H171.882C170.722 62.7615 169.789 63.8133 169.251 64.442L168.071 62.8703C169.962 60.9158 171.07 57.9821 171.486 56.0961L173.405 56.3178ZM165.945 63.8335H165.909C165.462 64.4563 164.951 65.0316 164.386 65.5502L163.589 63.7247C165.509 61.8024 166.669 59.6988 167.433 56.1123L169.267 56.4467C169.025 57.3333 168.629 58.8687 167.776 60.6942V73.5293H165.945V63.8335Z" fill="#777777"/>
      <path d="M185.089 61.5404H193.539V58.4011H185.089V61.5404ZM183.379 56.6683H195.22V63.2813H183.379V56.6683ZM191.474 70.8494H195.159V66.4729H191.474V70.8494ZM181.726 64.7723H188.459V73.3237H186.798V72.5661H183.379V73.4526H181.726V64.7723ZM183.379 70.8494H186.81V66.4729H183.379V70.8494ZM189.801 64.7723H196.828V73.4526H195.167V72.5661H191.474V73.4526H189.801V64.7723Z" fill="#777777"/>
      <path d="M102.495 69.7128C107.729 65.9207 109.495 62.4913 109.769 61.907L102.402 61.8989V59.8679H110.962V56.777H112.889V59.8679H116.813V61.9473H112.905L112.909 72.7634H110.962L110.966 63.5673C110.966 63.5673 109.402 67.3352 103.631 71.4658L102.495 69.7128Z" fill="#777777"/>
      <path d="M55.6747 75.9633H198V76.197H55.6747" fill="#777777"/>
      <path d="M57.2385 28.0725V28.2619L56.9313 28.3667L56.0908 28.3465L55.2502 28.3828L55.2057 28.2982L55.5937 28.0564C56.1554 28.1612 56.6444 27.8831 57.1576 28.0242L57.2385 28.0725Z" fill="#777777"/>
      <path d="M37.0206 46.7709L36.8751 46.9442L36.6003 47.3069L36.4063 47.5285L35.8244 47.996L35.2304 48.3869C34.7917 48.7663 34.2532 49.0124 33.6786 49.0961L32.9188 49.1808C32.4824 49.1324 32.0015 49.1324 31.6459 48.939L31.2579 48.8181C30.7447 48.5521 30.5467 48.3587 30.3527 47.8026L30.3365 47.6655H30.3042L30.2719 47.2344L30.2234 47.1135L30.1426 46.1705V46.0294H30.1587L30.1749 45.3403L30.2355 45.2033L30.3042 45.0663H30.3365L30.3527 44.8446H30.3648L30.4174 44.6673V44.0346L30.482 43.9137L30.5103 43.7566L30.5467 43.4826H30.579L30.5952 43.3254H30.6113L30.6598 43.1723V43.0675H30.6922L30.7245 42.8821H30.7528L31.0478 42.33L31.2256 42.1043C31.6135 41.8666 31.949 41.516 32.5632 41.4837L33.2744 41.242C33.6624 41.2621 34.018 41.3629 34.406 41.4354L35.2142 41.8263L35.6951 42.3461H35.7274L35.7638 42.4509H35.7921L35.9376 42.7249C36.572 43.9581 36.8549 44.7399 36.9721 46.1705L36.9883 46.3236H37.0206V46.7709ZM38.2451 46.8032L37.8127 46.5654L37.6833 46.4606L37.5864 46.372L37.5217 46.0979H37.4853L37.4409 45.3403H37.4247L37.3924 45.1388L37.3399 44.8245L37.2792 44.3248H37.2469L37.1984 44.083H37.1822L37.1176 43.8775L37.0529 43.6357L36.9236 43.2569H36.8913L36.8145 43.0514C36.2043 41.5643 35.8648 41.2339 34.309 40.8511L33.824 40.6939C33.3068 40.6737 32.741 40.6939 32.2763 40.8672C31.9045 40.8269 31.7065 41.0364 31.4519 41.1734L30.8215 41.6208L30.6396 41.8988L30.5952 42.0358L30.4012 42.2937L30.3042 42.4146L30.2557 42.604H30.2355L30.1587 42.7572V42.8096L30.1102 42.9829H30.0941L30.0456 43.2408H30.0132V43.3254L29.9809 43.6357H29.9486L29.9163 44.0346H29.8839L29.8354 44.2563H29.8193L29.7708 44.5464H29.7546L29.7384 44.756H29.7061V44.9293H29.6738L29.7061 45.2194L29.3828 45.7554H29.3667L29.3828 45.9287L29.399 45.977L29.7061 46.372H29.6738V46.4969L29.6576 46.9241L29.7061 47.186L29.7546 47.46L29.7708 47.5447H29.8031L29.8193 47.7018L29.8839 47.9073L29.9486 48.0444L30.2072 48.4272L30.7528 48.939L31.27 49.3541C31.8035 49.4911 32.3046 49.8175 32.9512 49.6644C33.3229 49.612 33.7917 49.6281 34.0342 49.3863L34.4868 49.3017L34.8424 49.2009L35.5981 48.802L36.1315 48.403C36.5033 48.2015 36.6811 47.859 36.9883 47.6132L37.2792 47.2505L37.3924 47.1497L38.0551 47.0651L38.2451 46.8032Z" fill="#777777"/>
      <path d="M23.6363 42.0883L23.6848 42.1044H23.6686V42.1366H23.6524L23.5393 42.5678H23.507L23.4585 42.8297H23.4423L23.3938 43.1521H23.3777L23.3453 43.3456L23.2968 43.6397H23.2645V43.7929H23.2322L23.119 44.0186L22.925 43.8977L22.9129 43.7606H22.9412L22.9735 43.2771H23.0059L23.0544 43.0554H23.0705L23.0867 42.862H23.119L23.1513 42.6081H23.1837L23.2645 42.3462L23.2968 42.2414L23.3615 42.1366V42.0721L23.3938 42.0399L23.5393 41.9351L23.6363 42.0883Z" fill="#777777"/>
      <path d="M24.0241 43.1884L24.0403 43.2609L24.0726 43.4302H24.0403L23.9918 43.7082L23.717 43.7888L23.6524 43.4302L23.717 43.277L24.0241 43.1884Z" fill="#777777"/>
      <path d="M24.6224 43.551L24.687 43.6557V43.9298L24.5739 44.0305L24.3153 43.7928L24.3314 43.6396L24.3799 43.5993L24.6224 43.551Z" fill="#777777"/>
      <path d="M25.5276 44.0508L25.5599 44.2402L25.463 44.3611L25.1922 44.2563L25.1235 44.083L25.1397 43.8977H25.3821L25.5276 44.0508Z" fill="#777777"/>
      <path d="M32.0337 45.546L31.9367 45.4251L31.9044 45.1672L32.0176 45.1148L32.0661 45.1672L32.0822 45.2518L32.0337 45.546ZM32.4217 45.0986L32.353 44.736H32.3247L32.2924 44.341L32.1954 44.1516L31.9367 43.8897C31.4195 43.7204 31.2578 44.1678 31.0356 44.4095L30.9345 44.5466L30.886 44.7198H30.8699V44.8246L30.8214 44.9778H30.7931L30.7608 45.683L30.8214 46.3197L30.8699 46.4084L31.2255 46.9766L31.9044 46.9403L32.0984 46.8194L32.3247 46.4084H32.353L32.3894 46.2189C32.353 45.8039 32.4702 45.4976 32.4217 45.0986Z" fill="#777777"/>
      <path d="M18.4353 48.2339L18.4999 48.3387L18.6252 48.5281L18.6616 48.7134L18.4676 48.9391L17.5462 49.1809L17.033 48.923L17.0936 48.786H17.1098L17.1623 48.5764H17.1946L17.2229 48.387L17.4007 48.1614L18.1605 48.0082L18.4353 48.2339Z" fill="#777777"/>
      <path d="M35.2141 54.331C34.5514 54.3471 33.925 54.331 33.2784 54.331L32.5995 54.2463L32.4702 54.1254L32.5793 54.0731L34.0341 54.2262C34.4382 54.1053 34.8262 54.2826 35.2141 54.2987V54.331ZM49.0511 55.9872C48.457 55.7777 47.7619 55.7777 47.1921 55.556C46.6466 55.4996 46.1414 55.3304 45.5474 55.3787L44.9695 55.2619L44.4199 55.1571C43.9996 55.0725 43.547 55.0523 43.0944 55.0201C42.7064 54.8105 42.1568 54.9475 41.8012 54.746C41.1546 54.7098 40.6576 54.4035 40.011 54.4841C39.5543 54.468 39.1866 54.2987 38.7017 54.3471C38.2369 54.2101 37.6671 54.2826 37.2024 54.194L36.3255 54.1254C35.7152 54.0569 35.0687 53.9884 34.4382 54.0569C33.8644 53.9361 33.279 53.878 32.6925 53.8837L31.9044 53.7628L31.759 54.0731H31.7266L31.7428 54.2463L32.1307 54.6937C32.6157 54.8266 33.1814 55.0201 33.727 54.8669C34.1634 54.8831 34.5837 54.9475 35.004 54.8992C35.4081 54.9677 35.8284 54.8831 36.2163 54.9878L37.0044 55.0523C37.5216 55.0886 38.0227 55.0362 38.5238 55.1208C38.9118 55.0201 39.2351 55.2095 39.623 55.2256L41.0092 55.3304C41.482 55.4835 42.0437 55.3989 42.5125 55.5198C42.9489 55.5359 43.3854 55.5359 43.7895 55.6407L44.6947 55.7253L45.4504 55.8825L46.1293 55.9872C46.6142 56.1565 47.1921 56.1404 47.6811 56.3137L48.5176 56.4829L49.2127 56.3943L49.245 56.3459L49.0511 55.9872Z" fill="#777777"/>
      <path d="M29.4313 56.378C29.9163 56.5312 30.5265 56.4103 31.0155 56.636L31.7065 56.7931L32.143 56.9463C32.5471 56.9463 32.9512 57.0833 33.3674 57.0994L33.7109 57.4822V57.6877C33.0967 57.6515 32.5834 57.4097 31.9813 57.3452L31.2054 57.1679C30.284 57.1357 29.5122 56.636 28.5584 56.8415L27.9927 56.4828L27.9321 56.2733L28.5423 56.3055L29.4313 56.378Z" fill="#777777"/>
      <path d="M48.3396 61.0124C47.9194 61.1857 47.4708 60.9962 47.0667 60.9439C46.4807 60.7021 45.7897 60.5489 45.1916 60.3233V60.3071L44.3712 60.1701C43.9469 60.013 43.4822 59.9485 43.0094 59.8759L42.2698 59.6503C41.6071 59.3561 40.7827 59.1183 40.0916 58.8765C39.4087 58.7718 38.8308 58.5179 38.2165 58.3245L37.57 58.0343L37.5861 57.9819C37.9579 57.9456 38.2489 58.1028 38.5722 58.1552C39.0409 58.397 39.6673 58.4615 40.1846 58.6186L40.718 58.6871C41.1868 58.8282 41.7364 58.8765 42.1567 59.1022C42.5608 59.203 42.8639 59.4609 43.3205 59.4971C43.8701 59.7027 44.4965 59.8236 45.0461 60.013L46.0645 60.2185C46.4363 60.3233 46.8525 60.3555 47.196 60.5127L47.7294 60.6698L48.3558 60.9237H48.372L48.3396 61.0124ZM49.2449 60.9801L49.0024 60.7021L48.4528 60.3071C48.0972 60.3233 47.9032 60.0815 47.5476 60.1177C47.2566 59.9807 47.0141 59.7873 46.61 59.8074C45.9796 59.5818 45.2239 59.477 44.5288 59.34L43.7853 59.0136L42.9649 58.7556L42.3668 58.5179L41.5909 58.2922C40.6857 57.998 39.7199 57.8933 38.7823 57.6353C38.3782 57.5185 37.8771 57.5507 37.5215 57.3653C35.9575 57.1236 34.5189 56.6762 33.0035 56.3619C32.6761 56.1564 32.1589 56.1886 31.7749 56.0355L31.4032 55.967C31.0314 55.8824 30.5949 55.8622 30.2393 55.7413L29.8514 55.6768L29.0108 55.4149C28.6107 55.1731 28.0611 55.3827 27.7176 55.5358L27.657 55.6204L27.7055 55.8824L28.1379 55.7091L28.7683 55.8824C29.3341 55.9509 29.8352 56.108 30.3525 56.2612L30.5788 56.3458L31.1284 56.5513C31.6093 56.6037 32.0982 56.5513 32.4983 56.7407C33.0035 56.8133 33.4197 57.051 33.9531 56.9301L34.1309 57.051C34.4866 57.0671 34.7614 57.2606 35.0362 57.3815L34.729 57.5346L34.4866 57.8288L34.5351 57.861C34.9675 58.0142 35.4241 58.0827 35.8727 58.2398C36.4223 58.3245 36.8911 58.6025 37.473 58.6348C38.3459 58.9289 39.2309 59.1345 40.0916 59.4286C40.5079 59.5657 41.0413 59.6342 41.4293 59.8236L41.7687 59.9485C42.2011 60.013 42.4961 60.2709 42.9487 60.291C43.4296 60.428 43.9146 60.5489 44.3874 60.7021L45.3856 60.964C46.016 61.1171 46.6949 61.238 47.2889 61.4436C47.7092 61.4758 48.081 61.4274 48.4528 61.5483L49.2449 61.238V60.9801Z" fill="#777777"/>
      <path d="M17.6471 58.651L17.6956 58.8243L17.5825 58.925L16.7257 58.8565L16.7096 58.651L16.8066 58.514L17.4532 58.4415L17.6471 58.651Z" fill="#777777"/>
      <path d="M41.2031 64.9898L41.1061 64.9576L40.1686 64.5425L39.328 64.1113L38.5077 63.6801L37.5863 63.3577C37.166 63.1643 36.6649 63.0595 36.2608 62.8379C35.8531 62.7438 35.4693 62.5668 35.1333 62.318L34.4544 62.0964C34.1149 61.9594 33.8563 61.7337 33.4845 61.6491L32.9834 61.4758L32.0661 61.0285L31.662 60.7504L31.7751 60.6134C32.3247 60.6698 32.6965 61.0124 33.2582 61.0809L33.4684 61.1494C33.9533 61.3589 34.5029 61.4758 34.9353 61.7498C35.3111 61.8707 35.7112 62.0279 36.0345 62.181L36.8104 62.58L37.2792 62.8379C37.6805 62.9839 38.0642 63.1745 38.4228 63.4061L39.1381 63.7164L39.6028 63.9018L40.5727 64.4377L41.2031 64.9012V64.9898ZM43.2843 65.8845L42.8034 65.5097L42.2983 65.0382L41.284 64.333C40.8475 63.9582 40.205 63.7849 39.7483 63.4061L39.1179 63.0797L38.8431 62.9588L38.5238 62.7653C38.1521 62.7492 38.0066 62.4752 37.6994 62.4067L37.0367 62.1165L36.1638 61.7659L35.4081 61.4758L34.7777 61.2219C34.418 60.9761 33.9533 60.8552 33.533 60.6859C33.1168 60.6336 32.7571 60.4442 32.3692 60.3595L32.3247 60.3031L31.3548 60.2709L31.173 60.4764L31.1285 60.6698H31.1124L31.2094 61.0124L31.6943 61.4436C32.3085 61.6692 32.8864 61.9916 33.5047 62.1971L34.3736 62.5598C34.6969 62.8218 35.2263 62.854 35.598 63.0434C35.9254 63.3577 36.4871 63.3336 36.8629 63.6116C37.457 63.6801 37.7762 64.0791 38.3784 64.1476L38.4228 64.1959L39.2149 64.5748L39.7968 64.8004C40.2764 64.9185 40.7237 65.1415 41.1061 65.4533C41.4779 65.4855 41.7689 65.6951 42.1245 65.7797L42.4599 65.9731L43.2197 66.0537L43.3045 65.9368L43.2843 65.8845Z" fill="#777777"/>
      <path d="M26.5095 68.8103H26.5742L26.6712 68.9473C26.9783 69.1045 27.2329 69.31 27.6047 69.3946L27.9805 69.7211L27.9643 69.9145L27.932 69.979L28.2836 70.1885C28.7039 70.257 28.9787 70.4666 29.3505 70.5472L29.6091 70.7728L29.7384 71.0509L29.8192 71.1154L29.8839 71.2725L29.9162 71.5305H29.9486C30.5669 72.2155 30.9103 72.7596 31.5125 73.4245L31.658 73.6824H31.6943C32.1187 74.2627 32.9148 74.8914 33.1289 75.5603L33.3068 75.8343C33.5654 76.197 33.9453 76.7733 34.0503 77.2327L34.0988 77.8654L34.1473 78.1072H34.1635L34.2443 78.2482L34.309 78.7278H34.3372L34.4544 79.0018L34.5191 79.1429C34.612 79.4975 35.0323 79.6305 35.1657 80.2269L35.2142 80.3317L35.2748 80.5855L35.3112 80.7266L35.3597 81.4318L35.5173 81.8469L35.6183 82.0161L35.7597 82.2096L36.1194 82.5158L36.6528 83.0518L36.7296 83.209L36.7943 83.9142H36.7619L36.7134 84.152H36.6973L36.6811 84.3938H36.6528L36.665 84.426H36.6528V84.4623H36.6811L36.6973 85.4254L36.7619 86.2878L36.8428 86.7512L36.8589 86.9608H36.8913V87.0494L36.9115 87.3557L36.9398 87.529H36.9559L36.9398 88.3229L37.1176 88.5606L37.1014 88.8548H37.0691L37.0367 89.0966H37.0044L36.9882 89.2336H36.9721L36.9236 89.4553L36.7458 89.6326L36.568 89.5439V89.3021H36.6003L36.6528 88.9757L36.7134 88.6493V88.5445H36.7458L36.7296 88.339L36.3255 87.9763L36.2932 87.7708H36.3255L36.378 87.5773V87.3194H36.3942V87.1139H36.4225L36.3942 86.8036L36.3255 86.6505L36.277 86.4973L36.2285 86.4248L36.18 86.2032H36.1477L36.1356 85.635L36.1194 85.2884H36.1477V84.7202H36.1194V84.1036H36.1477V83.8094H36.18L36.083 83.2573H36.0507L35.9901 83.1364L35.6627 82.81L35.3273 82.4675L35 82.0524L34.9717 81.8993H34.9394L34.9232 81.7421L34.8868 81.3311L34.7616 81.0006L34.7252 80.7427H34.6969L34.6323 80.3639L34.5838 80.2591L34.5191 80.1221L34.2605 79.6426H34.2443L34.1635 79.5217L34.018 79.2436L33.9695 79.159L33.8563 79.0018H33.824L33.7594 78.8326L33.6947 78.6109L33.6785 78.4497H33.6462L33.5977 78.0024L33.5654 77.8009L33.5007 77.1279H33.4684L33.4037 76.9546L33.2421 76.6282L33.1451 76.4187H33.1289L33.0481 76.2978L32.9067 76.0439H32.8905L32.8056 75.8867C32.3167 75.1533 32.1914 74.8067 31.3508 74.1458L30.979 73.6502H30.9669L30.8336 73.4245C30.284 72.5178 29.6778 72.5258 29.3666 71.5627L29.0433 71.067H29.015L28.4654 70.7567L27.6572 70.394L27.637 70.2409H27.6047L27.5077 70.0152C27.1036 70.0152 27.0268 69.6727 26.7682 69.5316L26.0569 69.1367L25.9155 68.6894L26.1216 68.6048L26.5095 68.8103Z" fill="#777777"/>
      <path d="M17.4049 84.3252L17.3725 84.8611H17.3402L17.324 85.0143H17.3079L17.2594 85.5986L17.2917 85.6671H17.2755L17.2594 86.2877H17.227L17.1624 86.5295V86.5819L16.9684 86.6504L16.7583 86.5658L16.6128 86.2877L16.5522 86.2031L16.4673 86.0298L16.3865 85.8041L16.2248 85.5825L16.2087 85.5301L15.8207 84.9981L15.7439 84.9095L15.5782 84.5831L15.5621 84.4299H15.5298L15.3883 84.1881L15.1418 84.1196L15.0125 84.0149L14.8387 83.7731L14.273 83.2935C13.885 83.1364 13.6749 82.7737 13.1253 82.8301L12.4625 83.0356V83.084L11.6098 83.0517L11.5937 82.9993L11.6098 82.7414L12.2726 82.141L12.608 81.879L13.1091 81.5002L13.5617 81.0529L14.079 80.6378L14.4831 80.3477C14.8387 80.2107 15.1135 79.9689 15.5015 79.848L15.8207 79.9004L16.0026 80.0696L16.1763 80.2631L16.2572 80.4363L16.435 80.6378L16.5643 80.795L16.6289 80.9481L16.7098 81.2625H16.7421L16.8108 81.4519L16.8876 81.6695L16.9522 81.8629H16.9846L17.0331 82.1007L17.0816 82.2055L17.1139 82.3264L17.227 83.0155H17.2594L17.3079 83.8617H17.324L17.4049 84.2768L17.3725 84.3252H17.4049ZM17.7443 83.9101L17.712 83.499L17.6312 83.0517H17.6473L17.5827 82.6366H17.5503L17.518 82.3102H17.4857L17.4533 82.1571L17.4049 81.7098L17.3402 81.5325H17.3079L17.2109 81.1577L17.1624 80.932H17.1301L17.0654 80.6378L16.9846 80.4847L16.9199 80.3316L16.8553 80.1905L16.8108 80.1422L16.2248 79.6062L15.6591 79.2435C15.0448 79.0702 14.6407 79.5175 14.2891 79.7956L13.9497 80.0696L13.2708 80.3638L13.0929 80.5371L12.9192 80.7104L12.6605 80.932L12.3332 81.1899C11.9816 81.3632 11.8159 81.7098 11.4967 81.9475L11.3512 82.1007C11.036 82.4392 10.7612 82.8059 10.446 83.1565V83.3096H10.4783L10.4945 83.4144L10.7208 83.7086C11.3835 83.8778 12.0301 83.6522 12.6403 83.5514L13.3354 83.4144C13.7234 83.3096 13.8527 83.6199 14.1073 83.7569L14.4831 84.1358L14.9155 84.4299L14.9357 84.4984H14.968C15.2509 84.9175 15.6429 85.2923 15.8894 85.7396L16.047 86.0298H16.0794L16.1117 86.1346L16.1763 86.2514H16.2087L16.2935 86.4932H16.3218L16.4835 86.8559L16.5643 86.9567L17.227 87.3032L17.5503 87.134L17.5827 87.0977L17.5948 86.9405L17.6635 86.1829H17.6958V85.8767H17.6635V85.3407H17.6958V85.1352H17.712L17.7241 84.9256H17.7605L17.809 84.5831H17.8251L17.8413 84.4299H17.8575V84.2043L17.7443 83.9101Z" fill="#777777"/>
      <path d="M28.8008 94.3998L28.6877 94.5207L28.2674 94.4482C27.7218 94.029 27.3096 93.4608 26.8611 92.937L26.8126 92.8846C26.6065 92.6267 26.1377 92.4896 25.7498 92.542L24.9254 92.3687C24.4889 92.264 24.1495 92.5219 23.7453 92.4171L23.5999 92.2156L23.5837 92.1955H23.5999L23.616 91.9053L23.7292 91.7844L23.9272 91.6273L24.1333 91.4701L24.7637 90.922V90.8858L24.9415 90.6641L25.4265 90.1443L25.7336 89.8904C26.0079 89.5555 26.3885 89.3238 26.8126 89.2335L27.3622 89.1811L27.8794 89.6325L27.9764 89.7534L28.0411 89.8541L28.2027 90.2652H28.2351L28.2836 90.4223L28.3321 90.511L28.4129 90.6802L28.4614 90.9381L28.4937 91.1759C28.6028 91.5587 28.4735 92.1592 28.6028 92.5219L28.6553 92.7999H28.6877L28.7321 93.5898H28.7523L28.7847 94.0008L28.8332 94.2467L28.8008 94.3998ZM29.3343 94.2628L29.2656 93.5898L29.2373 93.2634H29.2534L29.2049 93.0377L29.1888 92.9692L29.0433 92.2962H29.0271V92.2156H29.0433V91.6796L29.0069 90.9744H28.9786L28.9463 90.6641L28.8978 90.5432L28.8332 90.3699H28.8008L28.7685 90.1604L28.72 90.0798L28.6553 89.9387H28.6392L28.5907 89.838L28.4452 89.6808L28.1219 89.2496L27.443 88.6492L26.9581 88.5444C26.4772 88.4396 26.267 88.8023 25.8791 88.9071V88.9232L25.3618 89.302L24.5536 90.0959L24.4728 90.2329V90.3014L24.4081 90.4223L24.3434 90.5432L23.8585 91.1276L23.4099 91.4902L23.1957 91.8005L23.119 91.9537L22.8765 92.2479V92.4896L22.9694 92.6267C23.2281 92.9208 23.8262 93.074 24.2788 92.9208L24.8445 92.937L25.7619 92.9692L25.778 92.7838H25.8144L25.8306 92.937H25.7982L25.8467 93.074H25.9437L26.5378 93.2795V93.3117L26.8126 93.5576L26.8813 93.6946L27.1561 94.0734L27.2167 94.158L27.4753 94.5046H27.5077L27.7825 94.7786L28.5584 95.0002L29.2211 94.8793L29.3343 94.6577H29.3666V94.2628H29.3343Z" fill="#777777"/>
      <path d="M80.6003 54.7098L80.6165 54.8468L80.7296 55.4674L80.7781 55.6769L80.8105 55.9832H80.8428L80.9236 56.3096H80.9559L80.9883 56.6562H81.0206L81.0529 56.8617H81.0852L81.1014 56.9987L81.2469 57.5347H81.2631L81.2792 57.7402L81.3439 58.1351H81.3762L81.4085 58.4092H81.8692L81.8571 58.1875H81.8248L81.8127 58.0304L81.7642 57.7402H81.7278L81.6833 57.5347H81.6672L81.6025 57.3251L81.554 57.1035L81.5217 56.7247H81.4894L81.4368 56.5192H81.4247L81.36 56.2935L81.3439 56.0719L81.2954 55.9832L81.1782 55.3828L81.1661 55.1732H81.1337L81.1014 54.9516L81.0529 54.8307L80.9883 54.6614H80.9559L80.9236 54.4357H80.8913L80.8428 54.1899L80.7135 53.8837L80.6488 53.6781H80.6165L80.5357 53.4202L80.471 53.2792L80.4063 53.1422L80.3255 52.9528H80.3093L80.2285 52.5739H80.1962L80.1154 52.2314L80.0507 52.038L79.9861 51.9171H79.9537L79.8769 51.6793L79.8082 51.5262L79.6951 51.232L79.6304 51.0587H79.6021L79.5173 50.696L79.4526 50.5429H79.4203L79.3597 50.3011H79.3273L79.2425 49.9747L79.1778 49.8538L79.1132 49.7168H79.0849L79 49.475L78.9394 49.2533L78.8707 49.0801L78.7414 48.7496L78.6808 48.5642L78.5838 48.3184H78.5514L78.5353 48.1492L78.4827 47.9598L78.406 47.5971H78.3858L78.3373 47.3432L78.2928 47.2545L78.2403 47.1014H78.2079L78.1635 46.8395H78.1473L78.111 46.7024L78.0665 46.4607L78.0018 46.2713H77.9655L77.8887 46.0133L77.82 45.8602L77.5614 45.4451L77.3714 45.2235L77.0966 44.8245L77.129 44.5183L77.1734 44.3087H77.1936L77.1734 44.0871L77.0158 43.7042L76.9511 43.535H76.9188L76.8865 43.4302H76.8542L76.7733 43.2771H76.741L76.7087 43.1723H76.6764L76.5632 42.9668C75.8641 42.0278 75.4842 41.1493 74.9346 40.1942L74.773 39.8638H74.7366L74.5911 39.626C74.2436 39.1989 73.9284 38.6992 73.4636 38.4009L73.0434 38.0584L72.4614 38.2639L72.5584 38.542L73.1888 38.9047L73.8677 39.4689L74.1749 39.7832L74.6234 40.2305L74.478 40.4159L74.2395 40.6577L74.1425 40.7584L74.0941 40.8148L74.1425 40.9841L74.191 41.0405L74.8497 41.2783V41.3105H74.8821C75.3226 41.8384 75.7146 42.4107 76.1106 42.9829L76.1752 43.136H76.2076L76.45 43.535V43.7244H76.4177L76.3894 43.9501H76.3531L76.1752 44.208L76.1429 44.2402L76.1591 44.3248L76.3692 44.7036L76.7248 45.0704L76.741 45.1187L77.2098 45.6547L77.2906 45.8239H77.3229L77.4846 46.2229L77.5614 46.3236L77.6462 46.5816H77.6786L77.7271 46.8233L77.7594 47.0813L77.82 47.3754L77.9049 47.5286L78.0018 47.718H78.018L78.0665 47.9275H78.0948L78.1473 48.2701H78.1312L78.1635 48.528H78.1958L78.2403 48.7335L78.2928 48.8383L78.3373 49.0801L78.406 49.2533L78.4989 49.3904L78.5838 49.5959H78.6121L78.6808 49.886C78.8303 50.3011 79.0566 50.7001 79.2304 51.1434L79.2748 51.4214H79.3071L79.3597 51.6632L79.4526 52.038H79.489L79.5173 52.2798H79.5496L79.6304 52.5739H79.6628L79.7315 52.7634L79.7921 52.9004L79.8769 53.0938L79.9376 53.2631H79.9699L80.1356 53.6056L80.2285 53.8675L80.2932 54.0207H80.3255L80.4225 54.2947L80.4872 54.4519L80.568 54.7098H80.6003Z" fill="#777777"/>
      <path d="M31.5164 22.2331V22.4064H31.484L31.4679 22.5595H31.4517L31.4032 22.7287L31.3062 22.8496L31.0314 23.164L30.4172 22.9544L30.2393 22.7287L30.1464 22.632L30.0777 22.4587L30.0292 22.354L29.9646 22.1122H30.0009V21.9389H30.0171L30.0292 21.5601L30.1464 21.3908L30.304 21.1692L30.9829 21.008L31.3224 21.3384L31.4194 21.6165H31.4517L31.5325 22.0437L31.5487 22.2331H31.5164ZM31.9205 21.8341L31.872 21.4231L31.8073 21.3062L31.678 21.1128L31.6618 21.0805L31.5164 20.9435L31.2577 20.6977C30.9829 20.5284 30.595 20.7178 30.2393 20.6332L29.9484 20.8549L29.7867 21.0644L29.6291 21.4231H29.613L29.5604 21.6487H29.5281V21.9913H29.5604L29.613 22.4587H29.6291L29.71 22.8335L29.7706 23.0068H29.8029L29.9161 23.2647L30.2393 23.3211L31.2416 23.4219L31.4194 23.2808L31.6618 22.9383L31.7265 22.8335V22.8013L31.9043 22.4587H31.9366L31.9205 21.8341Z" fill="#777777"/>
      <path d="M57.5455 25.4531V25.4692L57.2869 25.2113L57.1738 25.1105L56.899 24.7478L56.8828 24.6954L56.3817 24.228L55.917 23.8371L55.3512 23.3334L55.2542 23.1963H55.2219L55.2057 23.148L55.1087 22.9908L55.7715 23.3011C56.3655 23.9902 56.907 24.224 57.4324 24.7962L57.5132 25.038H57.5455L57.5779 25.4208L57.5455 25.4531ZM57.1576 27.1416L56.9636 27.0932L56.996 27.0046L57.2546 26.9159L57.2708 26.9481L57.1576 27.1416ZM43.7571 25.1951L43.6561 24.9574L44.1289 24.7801L44.1895 25.1105L43.7571 25.1951ZM40.5727 25.4369L40.4272 25.6425L39.72 26.1099L38.6693 26.521C38.0591 26.6217 37.6388 26.932 37.0852 27.1093L36.277 27.331L35.3758 27.8307L35.1656 27.9475C34.617 28.0648 34.0968 28.288 33.634 28.6044L32.6318 29.0356C31.8276 29.5756 31.0558 30.1761 30.4981 30.9981L30.292 31.2198L29.6131 30.9981L29.4312 30.708L29.3706 30.5669L29.1564 30.309L29.1282 30.2043H29.0958L28.9342 29.9665L28.7887 29.6925L28.7079 29.4829L28.5786 29.2452L28.5301 29.0356H28.4977L28.4331 28.8623L28.4169 28.7414H28.3846L28.3361 28.4674L28.2876 28.1893H28.2553L28.2391 27.9475L28.2229 27.1416L28.2553 26.8837L28.2229 26.5572V25.9528H28.2391L28.2876 25.7472V25.1266H28.2553V24.7116H28.2876L28.2391 24.3489H28.2229L28.1744 24.095H28.1421V23.7484L28.2553 23.6638L28.6392 23.4704L28.7079 23.3696L28.8049 23.2326V22.9223H28.8534V22.7651H28.8857L28.8978 22.4548H28.918L28.8978 22.0962L28.7887 21.5642L28.5624 21.2862L28.2229 21.1653V20.8913H28.2391L28.2553 20.7019H28.2876L28.3199 20.4762H28.3522L28.7402 19.8072L28.8049 19.6541L28.8857 19.5493L29.0271 19.2874L29.1282 19.1826L29.1564 19.0134H29.1928L29.1443 18.7716L29.0958 18.703L28.9988 18.5499L28.918 18.3766H28.9342V18.2557H28.9503C28.918 17.8084 29.0271 17.4135 28.9503 16.9823L28.9827 16.9662L28.9665 16.8775H28.9827L28.9503 16.4141H28.918L28.8857 16.1562H28.8534L28.7887 15.8459L28.7725 15.7089H28.7402L28.7079 15.4469H28.6755L28.6594 15.0722C28.5624 14.6934 28.627 14.1251 28.6109 13.6577L28.6392 13.0895H28.6594L28.7079 12.9363V12.348H28.7402L28.7887 12.0054H28.8049V11.7274L28.8695 11.6951L28.9988 11.7999C29.213 12.3198 29.4312 12.8356 29.7262 13.3111L29.8515 13.7423H29.8717L29.9485 14.0204H29.9808L30.0495 14.1574L30.0617 14.2299L30.094 14.4677L30.1102 14.4838H30.094V14.9835H30.0617L30.0172 15.3663L30.0495 15.3825H30.0172L30.0495 15.3986H30.0172V15.5195H30.0495V15.5678H30.0172V15.9104H30.001L29.9808 16.2771H29.9485L29.9808 16.8292H29.9485V17.1354H29.9202L29.9041 17.7722H29.8879V18.2396H29.9202L30.0172 18.3404L30.3526 18.0301V17.9656H30.3688V17.5827L30.4213 16.9984V16.8453H30.4375L30.4213 16.3819V16.1199H30.4375L30.4496 15.7895H30.4819L30.5345 15.4832V15.1205H30.5506L30.5668 14.641H30.583L30.5668 14.6208H30.583L30.6274 13.7262H30.6436L30.6961 13.4159V13.2789H30.7244L30.7729 13.0371H30.7891L30.8376 12.7792H30.8537L30.9022 12.3842H30.9386V11.8321H30.9022V11.5904H30.9386L30.9224 11.5742H30.9386L30.9669 11.3324H30.9992L31.0315 11.0544H31.0639L31.1124 10.8327H31.1285L31.177 10.6474L31.2578 10.5748L31.5488 10.9375L31.5973 11.1108L31.6943 11.2639L31.7589 11.3848L31.8398 11.6468H31.8559L31.9368 11.7999L31.9852 11.9732L32.0337 12.0941L32.0822 12.4004H32.0984L32.1631 12.5575L32.2116 12.622L32.2762 12.7792L32.357 13.0371H32.3894L32.4217 13.2305H32.454L32.5308 13.432L32.6965 13.7101L32.7612 13.8995L32.7773 14.0526H32.8096L32.842 14.383H32.8743L32.9066 14.8787C32.9349 15.4026 32.9632 16.0071 33.3229 16.4141L33.6179 16.7244C33.8725 17.0145 34.1311 17.2926 34.616 17.3974L35.295 17.8447L35.7637 18.2557L35.8769 18.4774H35.9092L35.9739 18.5983C36.2487 19.098 36.3901 19.5896 36.7174 20.0289L36.8791 20.1981C37.8005 21.9793 37.4287 21.0968 38.637 22.3178L38.8148 22.5798L39.1219 23.1802H39.1381L39.2189 23.422L39.2836 23.6638H39.3159L39.3967 23.9741H39.4291L39.4937 24.1111L39.623 24.3489L39.6715 24.4537L39.6877 24.506L40.5727 24.9332L40.6576 25.2798L40.5727 25.4369ZM28.0128 23.1963L27.932 23.0593L27.8835 22.4548L27.9158 22.1969H27.932L27.9845 21.9914L28.1098 21.7819L28.2553 21.5965L28.3199 21.6851L28.4007 21.7819L28.1098 22.334L28.2391 22.5113L28.3846 22.6443L28.4654 22.7007L28.4492 22.9022H28.4169L28.2714 23.1117L28.0128 23.1963ZM4.32759 75.5965L4.94184 75.1855C5.37425 74.9236 5.84706 74.6979 6.27947 74.4239L6.5381 74.6012L6.55426 74.718L6.58659 75.0807L6.65529 75.5804H6.66742V76.0963H6.65529L6.61892 76.733L6.65529 76.8901H6.66742L6.73207 77.1642L6.74824 77.3858H6.78057L6.79673 78.216L6.86139 78.9051L6.92605 79.433L6.94221 79.4571H6.92605L6.95838 79.5055H6.92605L6.94221 79.5377H6.92605L6.89372 79.7997L6.8129 79.8843L6.69975 79.8682L6.45727 79.5055L6.42495 79.433L6.18248 78.9857L5.99254 78.764L5.84706 78.4577H5.82685L5.68138 78.216L5.60459 78.1434C5.47528 77.8734 5.08733 77.8492 4.72766 77.8734C4.27909 77.9218 3.93963 78.091 3.51935 78.1958L2.98592 78.4739L2.17769 78.8688L1.95139 78.8164L1.91906 78.6794H1.93523L1.98776 78.3691L2.06454 78.1958L2.1292 78.091V77.954L2.23023 77.8492L2.33934 77.543H2.35954L2.404 77.3858C3.36579 76.0398 3.01825 77.0151 3.87498 75.9754L4.32759 75.5965ZM48.7277 23.2125L48.7803 23.1802L49.0025 23.0069H49.6653V23.1117L49.4592 23.285L48.7277 23.3898V23.2125ZM74.4174 38.6952C74.0173 38.3325 73.6415 37.9375 73.3384 37.5225L73.1242 36.8535L72.8817 36.6601L72.7888 36.4908L72.708 36.1483L72.0775 35.302C71.6936 35.028 71.4956 34.5646 71.047 34.355L70.5136 33.9238L70.4005 33.7546L70.4449 33.6699L70.5419 33.5087V33.2549L69.867 32.7189L69.5235 32.3723L68.6708 31.6711C68.2667 31.4777 67.8788 31.2561 67.3938 31.2561C66.9574 31.0666 66.4401 31.0143 66.036 30.7402L65.1833 30.3413L64.3589 29.8134L64.0195 29.5353L63.971 29.2935L64.8762 29.499L65.4258 29.4668L65.4581 29.2452L65.345 29.088L64.6337 28.8986L63.8902 28.7938L63.2638 28.3102L63.4093 28.2054L64.46 28.3989L64.8439 28.4674C65.1995 28.552 65.5551 28.7253 65.9431 28.6769L66.5371 28.4996L66.4563 28.3465C65.6481 28.278 64.9732 27.8992 64.1973 27.7984L63.4376 27.5002L63.7972 27.3108C64.2619 27.2625 64.6661 27.4156 65.0863 27.4156C65.8249 27.5171 66.5433 27.7319 67.216 28.0523L68.0566 28.4513L68.3152 28.3102V28.0362L68.1051 27.8629L67.3938 27.331C66.9736 27.4156 66.7675 26.9884 66.331 27.069C65.6683 26.9884 65.0217 26.7789 64.3307 26.8474L63.5224 26.7265L63.4093 26.5734L63.5224 26.4686L64.1811 26.4202C64.5368 26.3638 64.8924 26.3638 65.2642 26.3316C65.8138 26.2469 66.4563 26.2792 67.0059 26.384L67.1029 26.3154V26.1422C66.3633 25.8158 65.5228 26.0051 64.7146 25.9326L63.7447 25.989L63.6477 25.8681L64.3589 25.4692C64.7792 25.2314 65.3288 25.1951 65.7168 24.8848C66.1047 24.7116 66.5533 24.6954 66.9736 24.6632L67.798 24.0748L67.8626 23.958L68.0768 23.559L68.2506 23.2689L68.2991 22.9586H68.3152L68.3314 22.7329L68.3476 22.5274L68.396 21.9753L68.4122 21.4232L68.4607 21.4071L68.4122 21.0444L68.4607 20.8389V20.1498L68.4284 20.1175C68.4122 19.771 68.4284 19.2551 68.4122 18.8078L68.493 18.5983L68.4607 18.2396L68.493 17.5989L68.5254 17.1516L68.5577 17.1354C68.5577 16.7042 68.5739 16.3093 68.59 15.8942L68.5577 15.7089C68.4445 15.1124 68.5375 13.4844 68.4122 12.7993L68.3476 12.4165C68.3799 12.0377 68.2829 11.7274 68.3152 11.3486L68.2506 11.1954L68.2829 10.8166L68.2506 10.8005L68.2182 10.0953L68.1697 9.95827L68.1051 9.83736V9.43842L68.0768 9.42229L68.0243 8.91856L67.9111 8.6808L67.8788 8.33424L67.8303 7.97558L67.798 7.52827V6.64976L67.7495 6.63364L67.7818 6.59737L67.7495 6.58125L67.7818 6.33945H67.7656L67.7495 5.77125L67.7171 5.75109L67.6889 5.22319C67.4787 4.11901 67.4181 3.01886 67.0544 1.95094L66.9129 1.50363C66.7351 1.10468 66.7149 0.504227 66.424 0.173775L66.1047 0.000495911L65.2439 0.193924L65.151 0.383331L65.0217 0.520348L64.8924 0.741982L64.763 0.895126L64.5529 1.26184L64.2619 1.84617L63.9871 2.4305L63.8255 2.70453L63.6477 3.03094L63.5386 3.17199L63.4376 3.32513C63.2799 3.7402 62.9365 4.01423 62.7142 4.37691L62.5647 4.63885L62.2454 5.11841C61.1341 7.20184 60.0955 9.29334 59.0165 11.3687L58.9034 11.5742L58.8387 11.7838C58.1881 14.649 57.1051 16.5108 55.7715 19.102L55.7351 19.2551L55.5896 19.4929L55.6705 19.7186L55.7351 20.6857C55.9776 21.0605 56.3494 21.391 56.6242 21.7335L56.9636 22.1808C57.1212 22.741 57.6627 23.2125 57.6102 23.8371V24.0225L57.2061 23.821L56.6727 23.4059C56.3364 23.0305 55.9153 22.7404 55.4441 22.5596C55.2542 22.3904 55.0926 22.0075 54.7208 22.1808L54.5753 22.4548L54.4298 22.5596L54.2035 22.8538C54.6359 23.3011 55.2542 23.6114 55.7189 24.0225L56.3494 24.5746L56.9636 25.2637L57.4971 25.6263L57.5455 25.7956L57.594 26.0374L57.5455 26.1583L57.4162 26.2631L57.0929 26.0898L56.4464 25.574L56.014 25.179C55.6583 24.8848 55.2219 24.7116 54.8501 24.4214L54.2641 24.5423L54.6521 24.9171C55.0117 25.2314 55.4805 25.3846 55.8483 25.6787L55.9614 25.9004L55.7876 25.8681C55.04 25.7956 54.3652 25.5256 53.6054 25.4369C53.2336 25.4531 52.9588 25.1951 52.5709 25.2475C52.1223 25.0057 51.5525 25.1428 51.104 24.9171L51.0352 24.8365L50.813 24.7116C50.3119 24.7962 49.8269 24.7801 49.3137 24.8163L48.9702 24.7478L48.3923 24.4859L48.4206 24.095C48.4853 23.6275 49.0995 23.9177 49.342 23.6114C49.8472 23.5953 50.1826 23.1963 50.6837 23.1963L50.813 22.9384L50.0532 22.8538L50.0856 22.7813L50.2311 22.6443L51.0352 22.334L50.9585 22.1808L50.619 22.2332L50.0209 22.475C49.5885 22.4548 49.2127 22.5435 48.7803 22.5596L48.4853 22.3702L48.166 22.8054C48.0569 23.0674 48.3438 23.2165 48.1014 23.8532L48.0044 24.5907L47.5154 24.7116C47.0022 24.8163 46.4849 24.7801 45.9838 24.901L45.1473 25.0219L44.9978 24.4859L44.9816 24.1796L45.0341 23.8371L45.0624 23.821L45.0341 23.0956L45.0624 22.9908L45.0341 22.8699L45.0624 22.5596L45.1473 22.4065L45.1796 22.1325L45.2079 21.806L45.2402 21.5642L45.1917 21.4232L45.1109 21.0605L45.018 20.8389L44.9978 20.3916L44.1895 19.8556L43.6763 19.4607C43.3166 18.7716 43.3732 18.3363 43.547 17.5989L43.6116 17.4457L43.7248 17.2241C43.9713 16.5713 44.2178 15.9345 44.3876 15.2616L44.432 14.9674L44.63 14.0687H44.6462L44.6623 13.8995L44.723 13.5569C45.0382 12.5212 45.4665 11.5581 45.81 10.5426L45.903 10.3169L45.9353 10.1436C46.8446 7.59274 47.5841 6.88751 48.9096 4.80811L49.4875 4.10289L49.8754 3.7402L50.0532 3.90945C50.2674 4.66304 50.3927 5.43677 50.5382 6.19841L50.5059 7.16558L50.4735 7.1817L50.5705 7.39125C50.6675 8.14484 50.7605 8.89439 50.7968 9.64796L50.813 10.2484C50.9181 10.7401 50.9585 10.9093 51.0352 11.4372L51.104 11.6226V12.1263L51.1363 12.1424C51.1039 12.5898 51.2009 12.9363 51.1686 13.3836L51.2009 13.6214L51.2777 13.8471V14.4677L51.2171 14.7578L51.2009 15.189L51.1686 15.326L51.1363 15.7572L51.104 15.7895L51.0878 16.2045L51.104 16.6357L51.1363 16.7405L51.2009 16.8936L51.2333 17.4135L51.2777 17.5666L51.3464 17.7198L51.3787 18.0139L51.4394 18.1872L51.4757 18.9287H51.4596L51.4232 19.2713L51.1363 19.9604C50.8291 20.3553 50.3765 20.7341 49.7785 20.718L48.9419 21.1169L48.5217 21.528L48.4853 21.7657L48.5661 21.8866L48.5823 22.1486L48.7641 22.2534C49.1157 22.1486 49.4875 22.0962 49.8472 21.9753L50.3765 21.8705L50.9585 21.7657L50.1341 21.5078L49.7785 21.528L49.7461 21.4232L50.5544 20.992C50.91 20.7663 51.2494 20.5286 51.5525 20.2384L51.7182 19.9443C52.0253 19.6299 51.9243 18.9287 51.9122 18.5177V18.2235L51.8637 17.9817L51.795 17.7198V16.4302L51.7667 16.4141L51.6818 16.136V15.0883L51.7344 15.0722V14.6934L51.7667 14.0526L51.7344 13.8632L51.6535 13.6053V12.4689L51.6818 12.4527L51.6535 12.2956C51.7384 11.3486 51.4757 10.4499 51.4394 9.52707L51.407 9.26917C51.1969 8.65662 51.403 8.45917 51.1686 7.97558L51.1363 7.5605L51.0555 7.31871C51.104 6.94393 51.007 6.63364 51.0352 6.23871L50.9908 5.92841C50.8655 4.36079 50.6069 4.44543 50.4089 3.32513L50.328 3.10348L49.633 3.08736L49.2976 3.46214L48.7641 3.96587L48.7116 4.03035L48.6833 4.22378L48.5823 4.39304L48.36 4.68721L47.9195 5.39244L47.5841 5.80751C46.9577 6.36363 46.9133 7.03662 46.2909 7.78618L46.2586 7.97558L46.1616 8.19722C45.8302 9.3014 45.2443 10.2444 44.9978 11.2801L44.82 11.6468L44.7917 11.8321L44.6906 12.0739L44.6139 12.1747C44.2623 13.4441 43.8662 13.7625 43.7248 15.2253L43.6763 15.588L43.6116 15.7089C43.5632 16.7244 42.5448 18.0704 42.9489 19.0134L43.0297 19.2229L43.1267 19.4083L43.3369 19.771C43.5793 20.182 44.1128 20.2183 44.4845 20.5125L44.82 20.7905L44.533 21.3547L44.0441 21.1492C43.547 21.0605 43.2075 20.7019 42.8034 20.4923L41.882 20.182L41.5305 20.3392L41.9507 20.7019C42.3255 20.7175 42.6812 20.8711 42.9489 21.1331L42.6094 21.4595L42.367 21.7657L43.2722 21.8222C43.6925 21.9431 44.2259 21.8544 44.5613 22.1969L44.4845 22.4548L43.4662 22.5435L42.9853 22.7168L42.9166 22.8377L43.5106 22.8054L44.4037 22.8377L44.4482 23.1963L44.2421 23.422C43.838 23.5107 43.4177 23.559 43.0297 23.6638L42.9166 23.8854L43.1429 23.958L44.0804 23.6799L44.4158 23.7646V24.1111L44.0966 24.4537L43.3692 24.8163L42.468 25.179L41.8053 25.5578L41.4335 25.5901L41.4618 25.2113L41.4941 25.0057L41.4456 24.7801L41.385 24.5907L40.9162 24.3489L40.0918 24.1957L40.0595 24.0386L39.9948 23.8008L39.7039 23.0069L39.6554 22.9223L39.5099 22.6443C39.3644 22.1325 38.9441 21.8383 38.6047 21.4756L37.9904 20.992C36.9478 19.6581 36.9195 19.0093 36.0547 17.7883L35.2788 17.083C34.6645 16.8614 34.0664 16.5672 33.6825 16.0675L33.6502 15.8459L33.6179 15.6202L33.5371 15.3986L33.5209 14.8787L33.436 14.5886V14.5362L33.4683 14.1735L33.4077 14.0042L33.339 13.8632L33.2784 13.5892L33.1936 13.4844L33.1006 13.1419L33.0198 13.0371L32.9188 12.7792L32.745 12.5051L32.6601 12.2311L32.648 12.0054L32.551 11.8321L32.2762 11.1108L31.9852 10.6071L31.9044 10.3693L31.8398 10.1436L31.7589 9.99051L31.6296 9.62782L31.5488 9.49483L31.1972 9.40618L30.9669 9.62782C30.5466 10.2404 30.4617 12.4245 30.3082 12.9686L30.1465 13.0371L29.9323 12.6623C29.6701 12.0986 29.4341 11.523 29.2251 10.9375L28.8695 10.4701L28.6109 10.5265L28.5301 10.7481L28.4654 11.0786L28.4169 11.3002L28.3522 11.6951L28.2876 11.9369L28.2391 12.7429L28.2068 12.763V13.1419L28.1421 13.4844V14.3105L28.1744 14.3266L28.1421 14.4314V15.1205L28.1744 15.1407L28.2068 15.6726C28.3199 16.0514 28.425 16.4101 28.5301 16.7929L28.4816 17.1516C28.5301 17.5989 28.4331 17.9817 28.4654 18.429L28.4977 18.703H28.5099V19.2229C27.5642 20.8913 27.8552 20.4198 27.6087 21.8222L27.5966 22.3541L27.544 22.3904L27.5966 22.6604C27.6046 23.2084 27.7299 23.8613 27.7865 24.4537L27.8552 24.7317C27.8552 25.1266 27.8188 25.3483 27.835 25.7634L27.7865 25.7795L27.7542 26.0374C27.6046 26.8434 27.5481 27.6655 27.8552 28.4513L27.9845 29.0195H27.9966L28.0936 29.3822L28.3846 30.0672L28.5624 30.4299L28.8372 30.9296L28.4169 31.4293L28.0613 31.8243L27.8027 31.7558L27.7865 31.8081L27.6895 31.7558L27.35 32.0459L27.2692 31.7558L27.3056 31.3971L27.0631 31.2561L26.7722 31.6872L26.5903 32.1346L26.4933 32.324C25.8265 32.8358 25.6002 33.8553 25.0749 34.5646L24.8971 34.8023L24.8324 34.9958C24.6223 35.5277 24.3353 36.0072 24.0929 36.5231L23.8342 36.9381L23.7211 37.2525L23.6039 37.4056C22.7183 38.7211 22.1498 40.2231 21.943 41.7941L21.8622 42.0359L21.8298 42.5356H21.8137L21.7935 42.7089L21.7652 42.8782L21.7005 43.0353L21.6682 43.4826L21.5874 43.6358L21.0863 44.341L20.6336 44.6029L20.0194 44.877C19.2273 45.014 18.4878 45.3243 17.7604 45.5822L17.4694 45.8038C16.9522 45.824 16.6976 46.2189 16.3541 46.4768V46.5292L16.2571 46.6864L16.2288 46.9402L16.1116 47.1659L16.0833 47.7019V48.0283L16.1116 48.254L16.1601 48.5079L16.1439 48.9753L15.9823 49.3219L15.6792 50.0594L15.566 50.5228L15.5337 50.5953L15.2751 51.1313L15.0609 51.091L14.5153 51.1071V51.091L14.0466 50.8694L13.4161 51.0064L13.4485 51.2482L13.6748 51.3691L14.5598 51.627L15.2064 51.9373L15.3074 52.1267L15.3882 52.437V53.0052L15.3519 53.1623L15.2427 53.3155C14.7578 53.38 14.3052 53.521 13.8526 53.6258C13.2707 53.7789 12.7857 54.0731 12.22 54.2585L11.3147 54.6735L11.3026 54.8992L11.3996 55.141L12.22 54.8992L13.2262 54.4197C13.8688 54.2423 14.4507 53.8837 15.1458 53.8112L15.2427 53.9683L15.2912 54.1779L15.2427 54.4358L15.1781 54.5889L15.1458 54.7783L15.0609 54.9153L15.0003 55.1732L14.9679 55.4352L14.9033 55.552L14.8184 55.81L14.1759 56.2573L13.9334 56.6038L14.7901 56.5152L15.1458 56.8618L15.1781 57.2406L15.2427 57.4138L15.3074 57.6194L15.3882 57.7403L15.4206 58.0989L15.4812 58.2561L15.5337 58.4979L15.5943 58.651L15.663 58.8606L15.7762 59.0338L15.6954 59.2756C15.3626 59.4513 15.0015 59.5672 14.6285 59.6182L14.0304 59.8398L13.7879 60.0494L13.7233 60.3234L13.7879 60.7707L13.8364 60.9238L13.7879 60.94L13.4485 61.4074L13.1737 61.9958L12.9514 62.3867L12.4948 63.0113L11.9775 63.2853L11.2541 63.9704L11.0117 64.3009L10.9632 64.4379L10.8985 64.595L10.7975 64.7643L10.1711 65.3003L9.94479 65.7153C9.78314 66.211 9.22143 66.4004 8.97896 66.8316C8.86176 67.2104 8.37682 67.2427 8.21518 67.5731C7.79894 67.831 7.54031 68.2098 7.16852 68.5L6.57043 68.9674L5.99254 69.2415L6.23097 69.6565L5.87939 70.1401C5.51837 70.3653 5.20974 70.6649 4.97417 71.0186L4.69937 71.3612L4.72766 71.5143L4.85698 71.9455L4.79636 72.0503L4.21039 72.7192L4.03662 72.961L3.76183 73.4083L3.71333 73.6501L3.79416 73.7871L3.76183 74.0813L3.42237 74.5609L3.22839 74.8752L3.05058 75.1291L3.03442 75.3709L2.9536 75.6812L2.85661 75.9915L2.24639 76.6967L2.11708 76.8901L2.04838 77.0594L1.56748 77.7485L1.38563 78.1636L1.35734 78.2643L1.30884 78.5222L1.24015 78.6955L1.17953 78.9373L1.12699 79.3685L1.11083 79.9851L1.06638 80.0898L1.12699 80.3155L0.722878 80.8152C0.460203 81.6897 0.375337 81.4963 0.128827 82.1048L0.189446 82.2095C0.464244 82.6972 0.266227 83.9786 0.0156752 84.4824L-0.000488281 84.8088L0.161158 84.9136L0.30664 84.6557L0.371298 84.3454L0.403625 84.0673L0.48445 83.9303L0.549107 83.7449L0.613765 83.4669L0.581438 82.8463L0.646096 82.6569L0.722878 82.4312L0.823905 82.2257L1.03405 81.9516V81.7098L1.01384 81.4882L1.06638 81.331L1.6281 80.6419L1.98776 80.2631L2.0807 80.106V80.0415L1.80591 79.574L1.90289 79.5055C2.32317 79.3685 2.71113 79.0904 3.1799 79.0582C3.63251 78.8486 4.13361 78.3852 4.68321 78.6794L5.50356 79.3322L5.68138 79.5942L5.75007 79.7795L5.81069 79.9528L6.40878 80.521L6.99071 80.4364L7.28167 79.9689L7.34633 79.7312L7.41099 79.5055L7.49181 79.3161V78.1636L7.43928 77.8492L7.41099 77.6115L7.37866 77.1803H7.34633V74.8752L7.28167 74.6657L7.20085 74.4762L7.16852 74.307L6.90989 73.8395L5.94001 74.0289L5.77836 74.17L4.94184 74.6173C4.59834 74.7865 4.35588 75.1492 3.97197 75.1694L4.11745 74.7543L4.24676 74.4077L4.31142 74.1498L4.33971 73.8234C4.69937 73.6018 4.95801 73.2552 5.3298 73.0336L5.39041 72.8764L5.03883 72.8401L4.79636 72.8925L4.88931 72.7394L5.50356 72.0503C5.97234 71.8246 6.15015 71.4095 6.50577 71.1033L6.63509 70.6197L6.23097 70.5874V70.4988C7.68579 69.2415 7.53222 68.4355 9.68616 67.0573L10.559 66.1788C10.9147 66.1627 10.9632 65.8 11.238 65.675C11.735 65.0746 12.5958 64.9215 13.2545 64.4379C13.8526 64.0752 14.5315 63.9059 15.2427 63.7689L16.3096 63.4909L16.839 63.3861L16.8713 63.7689L17.1178 63.8495C17.6266 64.1719 18.2207 64.3347 18.8232 64.317C19.1829 64.18 19.7608 64.1115 20.0356 64.4016C20.4397 64.5064 20.6498 64.8489 21.0863 64.9053L21.7652 65.131L22.4279 65.6428L22.9573 66.1062C23.2483 66.4367 23.7332 66.5536 23.9918 66.9364L24.6263 67.3474L25.188 67.6577C25.5921 67.8471 25.8669 68.1937 26.3034 68.3468L26.6428 68.2743L26.4327 67.831L25.6245 67.4159L24.6263 66.7953C24.202 66.5536 23.7817 66.2634 23.4625 65.9531L22.6987 65.3003L21.8622 64.6958C21.4419 64.6273 21.0701 64.3855 20.666 64.2646C20.3467 64.1638 20.0881 63.9382 19.7284 63.8697L18.9242 63.8334L18.213 63.5231C17.8412 63.6118 17.825 63.1967 17.5017 63.1483C17.0976 63.1121 16.6612 63.0597 16.2409 63.1121C15.8085 63.0597 15.5175 63.4747 15.0932 63.2853C14.7416 63.3015 14.4345 63.4747 14.0951 63.4909C13.6507 63.6419 13.2281 63.8506 12.8383 64.1115L12.2078 64.4379L11.5289 64.595L11.5613 64.3694C11.8037 63.9221 12.3372 63.785 12.6887 63.4022L12.8383 63.3861L13.2707 62.8904L13.3353 62.6809L13.4161 62.564L13.7071 62.2174L14.1436 61.5807L14.7255 61.0286L14.871 60.6821L15.0932 60.3556L15.1781 60.0494C15.4812 59.7713 15.954 59.7874 16.3258 59.6504L16.4026 59.5134L16.1601 59.1346L16.3096 58.6671C15.958 57.3615 15.3114 56.765 15.4812 55.1047L15.566 54.9476L15.5943 54.7098L15.663 54.5204L15.6954 54.2988L15.7762 54.1053V53.7306L15.8408 53.4364L15.9055 52.9004L15.9823 52.7312V52.3322L15.9055 52.1267L15.8408 51.8849L15.8691 51.6753L15.9378 51.3489L15.9217 51.1474H15.9378L15.954 50.9379C16.4147 50.1359 16.1641 50.2407 16.4551 49.6644L16.8592 49.1647L16.7461 48.8182L16.645 48.4071L16.6006 47.5085L17.0006 46.5494L17.5664 46.3962L18.2898 46.8032C18.7626 46.8919 18.9889 47.3392 19.3122 47.5649L19.393 47.7019L19.6314 48.0968L19.7446 48.387L19.7001 48.4595V48.9753L19.8456 49.1325L20.2619 48.9955V48.2862L20.1649 48.0283L20.0881 47.8026L19.9426 47.5286C19.6928 47.197 19.3929 46.906 19.0536 46.6662L18.8232 46.4768L18.1807 46.0496L18.8111 45.6507L19.0536 45.7393L19.0818 45.9086C19.4577 46.3076 19.8133 45.6346 20.2619 45.7555L20.375 45.9811V46.1705L20.7145 46.1867L21.7935 46.2552C22.2501 46.5131 21.5389 46.5977 21.6197 46.908L22.5411 47.2022L22.4926 47.3553L22.3956 47.5085L22.4279 47.6656L22.9735 47.8591L23.1553 47.7019L22.731 47.2908L22.8159 46.9805L22.8442 46.9604L22.8159 46.8435L22.2501 46.0658L22.0885 45.8441L21.555 45.6507L21.1671 45.3404L21.2317 44.8608L22.0885 44.1717L22.3269 44.2926L22.5694 44.204L22.6017 44.1032L22.6381 43.5149L22.6987 43.4141L22.731 43.124L22.8159 42.8096L22.8442 42.5558L22.9129 42.451L22.9573 42.1729L23.026 42.0037L22.9735 41.7256L22.731 41.8989L22.6704 42.052L22.6381 42.2938L22.5694 42.4832L22.4279 43.1038L22.3471 43.3255L22.3269 43.1723L22.3956 42.9668V42.5155L22.4279 42.4993L22.4562 41.7941L22.5249 41.5886C22.731 40.831 22.727 39.9686 23.2038 39.3319L23.4907 38.7798L23.814 38.0061C24.4768 36.8696 25.1315 35.2295 25.7982 34.1656L26.0448 33.7022L26.2549 33.4926L26.2387 33.9238L26.4327 34.077L26.6226 33.7022L26.8651 33.1178L26.9621 32.9244L27.0793 32.7552L27.3218 32.6705L27.5602 32.9405L27.932 32.7713L28.5301 31.9975L28.5947 31.8928L28.6594 31.7396L29.1282 31.2762L30.0495 31.3971L30.094 31.4777L30.1789 31.8081L30.68 31.5825C30.9386 31.1875 31.3063 30.8772 31.5973 30.5146C32.1146 30.0672 32.551 29.5877 33.1774 29.2452L33.339 29.2774L33.925 29.1887C34.3291 28.814 34.9434 28.6769 35.3919 28.3828C35.7152 28.0886 36.2163 27.9838 36.6205 27.7783C36.9761 27.605 37.3964 27.605 37.7318 27.4357C38.346 27.2786 38.8148 26.8998 39.3806 26.7104C39.8493 26.6217 40.1888 26.2953 40.6859 26.3154C41.1425 26.2308 41.5628 26.0051 42.0275 25.9528C42.468 25.9004 42.8681 25.6787 43.3045 25.7472L43.9147 25.5901C44.3027 25.4047 44.7432 25.4692 45.1796 25.4208C45.5312 25.2999 45.9555 25.316 46.3233 25.2475C46.8082 25.0743 47.2446 25.3846 47.7296 25.3322C49.1157 25.179 50.5059 25.4208 51.8112 25.6626C52.3446 25.8157 52.9588 25.7472 53.4923 25.9165L53.8964 25.9729L54.3652 26.0374L54.6076 26.3638L54.5591 26.5411L55.04 26.9884L54.4621 27.2786L54.446 27.4519C54.7814 27.6775 55.2704 27.5365 55.6705 27.5728L56.3979 27.6211L57.1253 27.5889L57.3677 27.9314L57.6587 27.9838L57.7557 27.8307L57.788 27.5728L57.8527 27.1738C58.1517 26.2671 58.0062 25.0219 58.176 24.1957V23.422C56.1069 19.0295 55.4603 21.4675 57.6425 16.9501L57.7557 16.6559C57.7799 15.7814 58.6488 14.8908 58.6569 14.1735L58.7094 13.8471L58.8226 13.6415L58.871 13.3313H58.9034L58.9155 13.1902C60.2854 9.05558 63.1385 4.86452 65.2157 1.10467L65.6683 0.504227L66.2946 0.572731L66.3633 1.44721L66.3957 1.46333L66.4765 1.75751L66.5694 1.98318L66.6381 2.15647L66.7149 2.41438L66.7513 2.72468L66.8119 3.08736L66.8604 3.5508L66.9251 3.80871V4.2399L66.9574 4.27214L67.0059 4.90885H67.0261L67.0544 5.47707C67.1635 5.70677 67.2443 6.29513 67.3453 6.44423V6.9117L67.3777 6.92781V8.39065L67.414 8.4229L67.4423 8.64857L67.507 8.82185L67.5595 9.06364L67.6201 9.49483V10.1114L67.6889 10.2847L67.7333 10.6474L67.798 10.9214L67.8303 11.2801L67.9111 11.3848L67.8626 11.4856L67.9111 11.8684L67.9273 12.8839L67.9758 12.9001L68.0081 13.8471L68.0566 14.2299H68.0768L68.0404 14.2783C68.0243 15.0923 68.2384 15.9466 68.1697 16.4625L68.1536 17.1717L68.1051 17.1878V17.5827L68.0404 17.8608V18.3404L68.0081 18.3565L67.9758 18.9287L68.0081 19.4607V20.4439L67.9273 20.6696L67.9758 20.9235V21.3748L67.9273 21.4071V21.9753L67.9111 22.3541L67.8303 22.5596L67.798 22.9022L67.7333 23.148L67.6201 23.5107C67.313 23.9902 66.6826 24.1635 66.0724 24.1796C65.7168 24.1635 65.4743 24.4375 65.151 24.4859C64.7792 24.6632 64.3428 24.6954 63.9265 24.7962C63.5102 24.9657 63.1581 25.2619 62.9203 25.6425L62.8435 25.8319C62.9364 28.012 61.8696 28.9429 61.8575 30.1035L62.0312 30.2607L62.4556 29.9504L62.5323 29.8134L62.601 29.6038L63.1789 29.7569C63.6131 29.8737 64.0124 30.0935 64.3428 30.3977C65.0217 30.7725 65.6481 31.2762 66.424 31.4616L66.7149 31.5825C67.0867 31.6349 67.3777 31.8444 67.7495 31.9089C68.2344 32.2393 68.8769 32.3723 69.2649 32.8237L69.2204 33.0453L68.6708 33.134L68.396 33.3395L69.1073 33.7546L70.2388 34.3913C70.8652 34.5968 71.3057 35.0602 71.6573 35.5075L71.7381 35.7332L71.6088 35.8058C71.2855 35.6849 70.9298 35.5277 70.5581 35.564L70.2388 35.7856L70.6874 36.0274C71.3021 36.1538 71.8682 36.4514 72.32 36.8858L72.9504 37.5064L73.5283 38.1108L73.9648 38.5904L74.3527 39.0216H74.5467L74.4174 38.6952Z" fill="#777777"/>
      <path d="M31.0115 21.6207L31.0762 21.7255L31.0923 22.1889L31.1085 22.463L31.0762 22.4992L30.672 22.6201L30.5266 22.5153L30.4457 22.3421L30.3003 21.8625L30.4175 21.7255V21.6691L30.5912 21.5885L31.0115 21.6207Z" fill="#777777"/>
    </g>
  </g>
  <defs>
    <clipPath id="clip0_27_24">
      <rect width="198" height="95" fill="white"/>
    </clipPath>
  </defs>
</svg>
